<?xml version="1.0" encoding="UTF-8"?>
<svg width="600" height="400" viewBox="0 0 600 400" fill="none" xmlns="http://www.w3.org/2000/svg">
  <!-- Background Circle -->
  <circle cx="300" cy="200" r="180" fill="#E8F5E9" />
  
  <!-- Calendar -->
  <rect x="150" y="100" width="300" height="200" rx="10" fill="white" stroke="#4CAF50" stroke-width="2"/>
  <rect x="150" y="100" width="300" height="40" rx="10" fill="#4CAF50"/>
  <text x="300" y="125" font-family="Arial" font-size="16" fill="white" text-anchor="middle">HABIT TRACKER</text>
  
  <!-- Checkboxes -->
  <rect x="170" y="160" width="20" height="20" rx="4" fill="#4CAF50"/>
  <rect x="170" y="190" width="20" height="20" rx="4" fill="#4CAF50"/>
  <rect x="170" y="220" width="20" height="20" rx="4" fill="#4CAF50"/>
  
  <!-- Checkmarks -->
  <path d="M175 170 L185 180 L195 160" stroke="white" stroke-width="2" fill="none"/>
  <path d="M175 200 L185 210 L195 190" stroke="white" stroke-width="2" fill="none"/>
  <path d="M175 230 L185 240 L195 220" stroke="white" stroke-width="2" fill="none"/>
  
  <!-- Habit Labels -->
  <text x="200" y="175" font-family="Arial" font-size="14" fill="#2c3e50">Morning Exercise</text>
  <text x="200" y="205" font-family="Arial" font-size="14" fill="#2c3e50">Healthy Breakfast</text>
  <text x="200" y="235" font-family="Arial" font-size="14" fill="#2c3e50">Meditation</text>
  
  <!-- Mood Icons -->
  <circle cx="450" cy="160" r="15" fill="#FFD700"/>
  <circle cx="450" cy="190" r="15" fill="#FFA500"/>
  <circle cx="450" cy="220" r="15" fill="#FF69B4"/>
  
  <!-- Decorative Elements -->
  <circle cx="100" cy="100" r="30" fill="#81C784" opacity="0.3"/>
  <circle cx="500" cy="300" r="40" fill="#81C784" opacity="0.3"/>
  <circle cx="400" cy="80" r="25" fill="#81C784" opacity="0.3"/>
  <circle cx="200" cy="320" r="35" fill="#81C784" opacity="0.3"/>
</svg> 